<?xml version="1.0" encoding="UTF-8"?>
<svg width="395.03" height="104.44" version="1.1" viewBox="0 0 395.03 104.44" xml:space="preserve" xmlns="http://www.w3.org/2000/svg" xmlns:xlink="http://www.w3.org/1999/xlink"><defs><clipPath id="clipPath102"><path d="m64.51 502.15h296.27v78.329h-296.27z"/></clipPath></defs><g transform="matrix(1.3333 0 0 -1.3333 -86.013 773.97)"><g clip-path="url(#clipPath102)"><g transform="translate(142.03 547.48)"><path d="m0 0c0 3.128 1.622 4.711 4.004 4.711 1.325 0 2.111-0.257 2.665-0.618v-1.608h-1.172c-0.219 0.977-0.554 1.454-1.532 1.454-1.326 0-2.125-0.926-2.125-3.875 0-3.102 0.863-3.81 2.203-3.81 1.016 0 1.402 0.437 1.583 1.467h1.107v-1.545c-0.49-0.36-1.442-0.682-2.729-0.682-2.666 0-4.004 1.674-4.004 4.506" fill="#58585a"/></g><g transform="translate(152.64 549.02)"><path d="m0 0c-1.03 0-1.391-0.799-1.391-2.626 0-1.867 0.347-2.716 1.443-2.716 0.913 0 1.377 0.875 1.377 2.702 0 1.919-0.49 2.64-1.429 2.64m0-6.051c-1.893 0-3.103 1.236-3.103 3.373 0 2.086 1.262 3.412 3.142 3.412 1.892 0 3.102-1.262 3.102-3.374 0-2.265-1.391-3.411-3.141-3.411" fill="#58585a"/></g><g transform="translate(158.86 544.57)"><path d="m0 0c0-0.747 0.129-0.901 0.876-0.928v-0.514h-3.321v0.514c0.721 0.04 0.875 0.168 0.875 0.901v6.065c0 0.939-0.207 1.068-0.928 1.094v0.489l2.112 0.361h0.193c0.077-0.193 0.193-0.618 0.193-1.275z" fill="#58585a"/></g><g transform="translate(163.59 546.26)"><path d="m0 0c-1.145 0-1.686-0.386-1.686-1.262 0-0.824 0.322-1.067 0.927-1.067 0.463 0 0.914 0.295 1.171 0.695l0.038 1.621c-0.102 0-0.347 0.013-0.45 0.013m-2.021 4.545 2.369 2.201 0.85-1.403-2.922-1.249zm4.905-7.017v-0.502c-0.231-0.129-0.657-0.231-1.12-0.231-0.849 0-1.159 0.36-1.248 0.9-0.22-0.424-0.786-1.004-1.777-1.004-1.184 0-2.059 0.606-2.059 1.868 0 1.531 1.235 2.111 3.256 2.111 0.155 0 0.373 0 0.541-0.013v0.579c0 1.043-0.245 1.507-1.031 1.507-0.9 0-1.145-0.529-1.248-1.173h-1.133v1.237c0.618 0.347 1.635 0.695 2.601 0.695 1.467 0 2.394-0.657 2.394-2.164 0-0.386-0.051-1.48-0.051-2.651 0-0.966 0.128-1.12 0.875-1.159" fill="#58585a"/></g><g transform="translate(168.42 550.48)"><path d="m0 0c-0.541 0-0.978 0.438-0.978 0.978 0 0.541 0.437 0.979 0.991 0.979 0.553 0 0.978-0.438 0.978-0.979 0-0.54-0.437-0.978-0.991-0.978m-1.546-7.351v0.515c0.696 0.039 0.851 0.167 0.851 0.901v3.103c0 0.939-0.168 1.068-0.863 1.095v0.488l2.189 0.477h0.244v-5.163c0-0.734 0.103-0.875 0.836-0.901v-0.515z" fill="#58585a"/></g><g transform="translate(170.71 543.51)"><path d="m0 0v1.326h1.081c0.103-0.889 0.541-1.171 1.326-1.171 0.682 0 1.197 0.27 1.197 0.953 0 0.604-0.334 0.836-1.004 0.99l-0.889 0.206c-1.016 0.232-1.659 0.811-1.659 1.892 0 1.353 1.094 2.035 2.432 2.035 1.081 0 1.764-0.296 2.086-0.451v-1.274h-1.017c-0.116 0.708-0.514 1.004-1.197 1.004-0.67 0-1.056-0.31-1.056-0.863 0-0.475 0.245-0.733 0.888-0.874l0.851-0.194c1.248-0.296 1.891-0.914 1.891-1.97 0-1.339-0.992-2.149-2.651-2.149-1.288 0-1.932 0.347-2.279 0.54" fill="#58585a"/></g><g transform="translate(179.89 548.72)"><path d="m0 0h-1.352v-3.657c0-0.965 0.129-1.274 0.773-1.274 0.231 0 0.45 0.052 0.734 0.142l0.154-0.566c-0.464-0.271-0.953-0.413-1.532-0.413-1.082 0-1.7 0.452-1.7 1.804v3.964h-0.772v0.554l0.863 0.322c0.09 0.591 0.282 1.249 0.591 1.737l1.005 0.155c-0.065-0.463-0.116-1.249-0.116-1.905h1.545z" fill="#58585a"/></g><g transform="translate(182.2 546.94)"><path d="m0 0h2.395c0 1.558-0.322 2.098-1.133 2.098-0.759 0-1.171-0.488-1.262-2.098m3.591-2.51 0.284-0.489c-0.657-0.593-1.467-0.965-2.497-0.965-1.932 0-3.064 1.248-3.064 3.41 0 2.137 1.223 3.374 2.948 3.374 1.841 0 2.729-1.159 2.729-3.129v-0.451h-4.004c0.039-1.648 0.606-2.239 1.893-2.239 0.541 0 1.197 0.193 1.711 0.489" fill="#58585a"/></g><g transform="translate(195.95 544.54)"><path d="m0 0c0-0.733 0.141-0.862 0.798-0.901v-0.515h-3.205v0.515c0.734 0.027 0.837 0.181 0.837 0.85v3.038c0 0.773-0.323 1.056-0.889 1.056-0.669 0-1.106-0.27-1.519-0.631v-3.463c0-0.669 0.103-0.823 0.837-0.85v-0.515h-3.257v0.515c0.696 0.039 0.849 0.168 0.849 0.901v3.103c0 0.94-0.166 1.069-0.862 1.095v0.488l1.892 0.515h0.195c0.076-0.166 0.269-0.656 0.294-1.146 0.568 0.619 1.223 1.133 2.228 1.133 1.043 0 1.802-0.618 1.802-1.853z" fill="#58585a"/></g><g transform="translate(200.58 546.26)"><path d="m0 0c-1.146 0-1.686-0.386-1.686-1.262 0-0.824 0.321-1.067 0.926-1.067 0.464 0 0.914 0.295 1.171 0.695l0.038 1.621c-0.101 0-0.347 0.013-0.449 0.013m2.885-2.472v-0.502c-0.233-0.129-0.659-0.231-1.121-0.231-0.851 0-1.159 0.36-1.249 0.9-0.22-0.424-0.786-1.004-1.777-1.004-1.183 0-2.059 0.606-2.059 1.868 0 1.531 1.235 2.111 3.257 2.111 0.154 0 0.373 0 0.541-0.013v0.579c0 1.043-0.245 1.507-1.031 1.507-0.901 0-1.146-0.529-1.249-1.173h-1.132v1.237c0.618 0.347 1.635 0.695 2.6 0.695 1.467 0 2.394-0.657 2.394-2.164 0-0.386-0.05-1.48-0.05-2.651 0-0.966 0.128-1.12 0.876-1.159" fill="#58585a"/></g><g transform="translate(213.41 552.04)"><path d="m0 0 0.116-2.214h-0.798c-0.232 1.094-0.335 1.427-1.133 1.427h-0.759v-6.655c0-0.772 0.27-0.926 1.08-0.94v-0.528h-3.81v0.528c0.812 0.014 1.082 0.168 1.082 0.94v6.655h-0.759c-0.8 0-0.889-0.333-1.134-1.427h-0.8l0.129 2.214z" fill="#58585a"/></g><g transform="translate(217.7 549.76)"><path d="m0 0c0.169 0 0.334-0.026 0.438-0.064l-0.322-1.648c-0.168 0.064-0.309 0.09-0.565 0.09-1.018 0-1.315-0.361-1.315-1.481v-2.112c0-0.733 0.129-0.874 1.057-0.901v-0.515h-3.477v0.515c0.696 0.04 0.85 0.168 0.85 0.901v3.103c0 0.94-0.167 1.068-0.863 1.095v0.488l1.892 0.515h0.195c0.088-0.192 0.295-0.785 0.307-1.569 0.412 1.003 1.108 1.583 1.803 1.583" fill="#58585a"/></g><g transform="translate(218.41 550.8)"><path d="m0 0 2.369 2.201 0.848-1.402-2.922-1.249zm-0.014-7.673v0.515c0.695 0.039 0.851 0.168 0.851 0.901v3.102c0 0.941-0.168 1.069-0.863 1.095v0.489l2.189 0.477h0.244v-5.163c0-0.733 0.104-0.875 0.837-0.901v-0.515z" fill="#58585a"/></g><g transform="translate(225.37 549.02)"><path d="m0 0c-1.032 0-1.391-0.799-1.391-2.626 0-1.867 0.347-2.716 1.442-2.716 0.913 0 1.378 0.875 1.378 2.702 0 1.919-0.49 2.64-1.429 2.64m0-6.051c-1.893 0-3.104 1.236-3.104 3.373 0 2.086 1.262 3.412 3.142 3.412 1.893 0 3.101-1.262 3.101-3.374 0-2.265-1.39-3.411-3.139-3.411" fill="#58585a"/></g><g transform="translate(235.58 544.54)"><path d="m0 0c0-0.733 0.142-0.862 0.798-0.901v-0.515h-3.205v0.515c0.732 0.027 0.836 0.181 0.836 0.85v3.038c0 0.773-0.322 1.056-0.888 1.056-0.669 0-1.108-0.27-1.519-0.631v-3.463c0-0.669 0.102-0.823 0.837-0.85v-0.515h-3.258v0.515c0.697 0.039 0.85 0.168 0.85 0.901v3.103c0 0.94-0.168 1.069-0.863 1.095v0.488l1.893 0.515h0.193c0.077-0.166 0.271-0.656 0.296-1.146 0.566 0.619 1.223 1.133 2.227 1.133 1.044 0 1.803-0.618 1.803-1.853z" fill="#58585a"/></g><g transform="translate(240.06 549.02)"><path d="m0 0c-1.032 0-1.391-0.799-1.391-2.626 0-1.867 0.346-2.716 1.442-2.716 0.913 0 1.378 0.875 1.378 2.702 0 1.919-0.49 2.64-1.429 2.64m-1.597 1.777 2.369 2.201 0.848-1.404-2.922-1.249zm1.597-7.828c-1.894 0-3.104 1.236-3.104 3.373 0 2.086 1.262 3.412 3.142 3.412 1.893 0 3.101-1.262 3.101-3.374 0-2.265-1.391-3.411-3.139-3.411" fill="#58585a"/></g><g transform="translate(245.42 550.48)"><path d="m0 0c-0.541 0-0.977 0.438-0.977 0.978 0 0.541 0.436 0.979 0.99 0.979s0.978-0.438 0.978-0.979c0-0.54-0.436-0.978-0.991-0.978m-1.545-7.351v0.515c0.697 0.039 0.85 0.167 0.85 0.901v3.103c0 0.939-0.168 1.068-0.862 1.095v0.488l2.188 0.477h0.244v-5.163c0-0.734 0.103-0.875 0.838-0.901v-0.515z" fill="#58585a"/></g><g transform="translate(250.76 543.95)"><path d="m0 0c0.503 0 0.979 0.27 1.403 0.721v3.54c-0.334 0.413-0.836 0.593-1.312 0.593-0.863 0-1.416-0.464-1.416-2.357 0-1.905 0.45-2.497 1.325-2.497m-0.464-0.965c-1.416 0-2.561 0.965-2.561 3.308 0 2.227 1.132 3.438 2.793 3.438 0.644 0 1.249-0.245 1.635-0.696v1.572c0 0.939-0.192 1.068-0.887 1.093v0.489l2.162 0.361h0.297v-7.57c0-0.94 0.167-1.055 0.914-1.094v-0.464l-1.88-0.463h-0.194c-0.051 0.064-0.269 0.489-0.321 1.081-0.411-0.618-1.171-1.055-1.958-1.055" fill="#58585a"/></g><g transform="translate(256.89 546.94)"><path d="m0 0h2.395c0 1.558-0.323 2.098-1.134 2.098-0.759 0-1.17-0.488-1.261-2.098m3.59-2.51 0.286-0.489c-0.659-0.593-1.469-0.965-2.499-0.965-1.931 0-3.063 1.248-3.063 3.41 0 2.137 1.222 3.374 2.947 3.374 1.842 0 2.731-1.159 2.731-3.129v-0.451h-4.005c0.038-1.648 0.606-2.239 1.893-2.239 0.54 0 1.196 0.193 1.71 0.489" fill="#58585a"/></g><g transform="translate(261.98 541.25)"><path d="m0 0-0.321 0.464c0.823 0.27 1.249 0.631 1.249 1.043 0 0.257-0.169 0.348-0.477 0.476-0.27 0.115-0.592 0.322-0.592 0.824 0 0.54 0.438 0.992 1.044 0.992 0.694 0 1.196-0.593 1.196-1.417 0-1.158-0.773-2.072-2.099-2.382" fill="#58585a"/></g><g transform="translate(271.36 543.89)"><path d="m0 0c1.21 0 1.609 0.463 1.609 1.738 0 1.223-0.411 1.699-1.71 1.699h-1.199v-3.437zm-0.271 4.197c1.121 0 1.494 0.425 1.494 1.558 0 1.197-0.424 1.609-1.544 1.609h-0.979v-3.167zm-3.642-4.429c0.773 0.014 0.952 0.207 0.952 0.94v5.948c0 0.734-0.179 0.94-0.952 0.953v0.541h3.733c2.046 0 3.129-0.76 3.129-2.279 0-1.081-0.592-1.699-1.776-1.956v-0.053c1.492-0.192 2.175-1.055 2.175-2.253 0-1.596-1.198-2.369-3.076-2.369h-4.185z" fill="#58585a"/></g><g transform="translate(278.87 546.26)"><path d="m0 0c-1.147 0-1.687-0.386-1.687-1.262 0-0.824 0.323-1.067 0.928-1.067 0.462 0 0.914 0.295 1.171 0.695l0.037 1.621c-0.103 0-0.348 0.013-0.449 0.013m2.883-2.472v-0.502c-0.232-0.129-0.657-0.231-1.121-0.231-0.848 0-1.158 0.36-1.246 0.9-0.22-0.424-0.788-1.004-1.777-1.004-1.185 0-2.061 0.606-2.061 1.868 0 1.531 1.236 2.111 3.258 2.111 0.153 0 0.373 0 0.539-0.013v0.579c0 1.043-0.245 1.507-1.03 1.507-0.9 0-1.145-0.529-1.248-1.173h-1.133v1.237c0.618 0.347 1.635 0.695 2.602 0.695 1.466 0 2.394-0.657 2.394-2.164 0-0.386-0.053-1.48-0.053-2.651 0-0.966 0.129-1.12 0.876-1.159" fill="#58585a"/></g><g transform="translate(283.69 550.48)"><path d="m0 0c-0.542 0-0.978 0.438-0.978 0.978 0 0.541 0.436 0.979 0.992 0.979 0.552 0 0.978-0.438 0.978-0.979 0-0.54-0.438-0.978-0.992-0.978m-1.546-7.351v0.515c0.696 0.039 0.851 0.167 0.851 0.901v3.103c0 0.939-0.168 1.068-0.863 1.095v0.488l2.19 0.477h0.244v-5.163c0-0.734 0.102-0.875 0.835-0.901v-0.515z" fill="#58585a"/></g><g transform="translate(288.31 544.57)"><path d="m0 0c0-0.747 0.129-0.901 0.875-0.928v-0.514h-3.32v0.514c0.719 0.04 0.875 0.168 0.875 0.901v6.065c0 0.939-0.208 1.068-0.929 1.094v0.489l2.112 0.361h0.193c0.078-0.193 0.194-0.618 0.194-1.275z" fill="#58585a"/></g><g transform="translate(291.47 546.94)"><path d="m0 0h2.396c0 1.558-0.324 2.098-1.134 2.098-0.759 0-1.173-0.488-1.262-2.098m3.591-2.51 0.283-0.489c-0.656-0.593-1.466-0.965-2.496-0.965-1.933 0-3.065 1.248-3.065 3.41 0 2.137 1.224 3.374 2.949 3.374 1.84 0 2.728-1.159 2.728-3.129v-0.451h-4.003c0.039-1.648 0.605-2.239 1.893-2.239 0.541 0 1.197 0.193 1.711 0.489" fill="#58585a"/></g><g transform="translate(300.99 552.95)"><path d="m0 0 2.55 1.906 0.706-1.456-2.971-0.913zm-0.027-6.449h2.369l-0.642 2.047c-0.284 0.913-0.452 1.596-0.516 1.918h-0.065c-0.088-0.374-0.23-0.965-0.527-1.932zm2.614-0.799h-2.844l-0.373-1.236c-0.052-0.168-0.066-0.297-0.066-0.386 0-0.334 0.271-0.399 0.889-0.425v-0.528h-2.806v0.528c0.58 0.051 0.773 0.207 1.018 0.967l2.406 7.414h1.403l2.458-7.389c0.22-0.657 0.375-0.941 0.966-0.992v-0.528h-3.424v0.528c0.593 0.026 0.825 0.155 0.825 0.464 0 0.102-0.027 0.231-0.065 0.347z" fill="#58585a"/></g><g transform="translate(310.22 548.72)"><path d="m0 0h-1.353v-3.657c0-0.965 0.128-1.274 0.772-1.274 0.232 0 0.451 0.052 0.734 0.142l0.155-0.566c-0.463-0.271-0.952-0.413-1.533-0.413-1.08 0-1.698 0.452-1.698 1.804v3.964h-0.772v0.554l0.864 0.322c0.087 0.591 0.281 1.249 0.589 1.737l1.004 0.155c-0.063-0.463-0.115-1.249-0.115-1.905h1.546z" fill="#58585a"/></g><g transform="translate(313.24 548.66)"><path d="m0 0c0.566 0.606 1.171 1.069 2.176 1.069 1.042 0 1.801-0.619 1.801-1.854v-3.335c0-0.733 0.143-0.861 0.8-0.901v-0.515h-3.207v0.515c0.735 0.027 0.839 0.181 0.839 0.851v3.037c0 0.773-0.324 1.057-0.889 1.057-0.671 0-1.108-0.27-1.52-0.632v-3.462c0-0.67 0.104-0.824 0.836-0.851v-0.515h-3.256v0.515c0.695 0.04 0.837 0.168 0.837 0.901v6.064c0 0.94-0.193 1.069-0.889 1.095v0.489l2.074 0.361h0.193c0.103-0.194 0.205-0.631 0.205-1.275z" fill="#58585a"/></g><g transform="translate(321.84 546.26)"><path d="m0 0c-1.148 0-1.687-0.386-1.687-1.262 0-0.824 0.322-1.067 0.928-1.067 0.462 0 0.914 0.295 1.171 0.695l0.037 1.621c-0.104 0-0.349 0.013-0.449 0.013m2.882-2.472v-0.502c-0.232-0.129-0.657-0.231-1.121-0.231-0.847 0-1.157 0.36-1.246 0.9-0.22-0.424-0.787-1.004-1.776-1.004-1.185 0-2.061 0.606-2.061 1.868 0 1.531 1.235 2.111 3.258 2.111 0.152 0 0.372 0 0.539-0.013v0.579c0 1.043-0.245 1.507-1.03 1.507-0.9 0-1.145-0.529-1.249-1.173h-1.132v1.237c0.617 0.347 1.634 0.695 2.602 0.695 1.466 0 2.394-0.657 2.394-2.164 0-0.386-0.052-1.48-0.052-2.651 0-0.966 0.127-1.12 0.874-1.159" fill="#58585a"/></g><g transform="translate(327.82 547.48)"><path d="m0 0c0 3.128 1.621 4.711 4.003 4.711 1.327 0 2.112-0.257 2.666-0.618v-1.608h-1.171c-0.22 0.977-0.555 1.454-1.533 1.454-1.326 0-2.125-0.926-2.125-3.875 0-3.102 0.864-3.81 2.203-3.81 1.016 0 1.401 0.437 1.582 1.467h1.109v-1.545c-0.49-0.36-1.443-0.682-2.731-0.682-2.665 0-4.003 1.674-4.003 4.506" fill="#58585a"/></g><g transform="translate(337.62 544.57)"><path d="m0 0c0-0.747 0.13-0.901 0.876-0.928v-0.514h-3.321v0.514c0.72 0.04 0.875 0.168 0.875 0.901v6.065c0 0.939-0.208 1.068-0.929 1.094v0.489l2.112 0.361h0.193c0.077-0.193 0.194-0.618 0.194-1.275z" fill="#58585a"/></g><g transform="translate(340.53 550.48)"><path d="m0 0c-0.542 0-0.978 0.438-0.978 0.978 0 0.541 0.436 0.979 0.991 0.979 0.553 0 0.98-0.438 0.98-0.979 0-0.54-0.438-0.978-0.993-0.978m-1.546-7.351v0.515c0.697 0.039 0.85 0.167 0.85 0.901v3.103c0 0.939-0.166 1.068-0.862 1.095v0.488l2.19 0.477h0.244v-5.163c0-0.734 0.102-0.875 0.836-0.901v-0.515z" fill="#58585a"/></g><g transform="translate(346.09 546.26)"><path d="m0 0c-1.148 0-1.687-0.386-1.687-1.262 0-0.824 0.322-1.067 0.928-1.067 0.462 0 0.914 0.295 1.171 0.695l0.037 1.621c-0.104 0-0.349 0.013-0.449 0.013m2.882-2.472v-0.502c-0.232-0.129-0.657-0.231-1.121-0.231-0.847 0-1.157 0.36-1.246 0.9-0.22-0.424-0.787-1.004-1.776-1.004-1.185 0-2.061 0.606-2.061 1.868 0 1.531 1.235 2.111 3.258 2.111 0.152 0 0.372 0 0.539-0.013v0.579c0 1.043-0.245 1.507-1.03 1.507-0.9 0-1.145-0.529-1.249-1.173h-1.132v1.237c0.617 0.347 1.634 0.695 2.602 0.695 1.466 0 2.394-0.657 2.394-2.164 0-0.386-0.052-1.48-0.052-2.651 0-0.966 0.127-1.12 0.874-1.159" fill="#58585a"/></g><g transform="translate(352.99 548.72)"><path d="m0 0h-1.351v-3.657c0-0.965 0.128-1.274 0.772-1.274 0.232 0 0.451 0.052 0.734 0.142l0.154-0.566c-0.464-0.271-0.953-0.413-1.532-0.413-1.082 0-1.7 0.452-1.7 1.804v3.964h-0.772v0.554l0.862 0.322c0.091 0.591 0.282 1.249 0.593 1.737l1.004 0.155c-0.065-0.463-0.115-1.249-0.115-1.905h1.544z" fill="#58585a"/></g><g transform="translate(356.01 548.66)"><path d="m0 0c0.566 0.606 1.171 1.069 2.175 1.069 1.043 0 1.802-0.619 1.802-1.854v-3.335c0-0.733 0.143-0.861 0.798-0.901v-0.515h-3.205v0.515c0.735 0.027 0.837 0.181 0.837 0.851v3.037c0 0.773-0.322 1.057-0.887 1.057-0.671 0-1.108-0.27-1.52-0.632v-3.462c0-0.67 0.104-0.824 0.836-0.851v-0.515h-3.256v0.515c0.695 0.04 0.835 0.168 0.835 0.901v6.064c0 0.94-0.191 1.069-0.887 1.095v0.489l2.072 0.361h0.193c0.105-0.194 0.207-0.631 0.207-1.275z" fill="#58585a"/></g><g transform="translate(151.77 576.86)"><path d="m0 0 0.196-3.74h-1.348c-0.392 1.849-0.565 2.414-1.913 2.414h-1.282v-11.24c0-1.304 0.455-1.565 1.826-1.587v-0.891h-6.436v0.891c1.37 0.022 1.827 0.283 1.827 1.587v11.24h-1.283c-1.348 0-1.501-0.565-1.913-2.414h-1.349l0.219 3.74z" fill="#58585a"/></g><g transform="translate(159.57 573.01)"><path d="m0 0c0.283 0 0.565-0.043 0.739-0.109l-0.544-2.782c-0.283 0.108-0.521 0.152-0.956 0.152-1.717 0-2.218-0.609-2.218-2.5v-3.566c0-1.238 0.218-1.479 1.783-1.521v-0.87h-5.87v0.87c1.175 0.064 1.435 0.283 1.435 1.521v5.24c0 1.586-0.282 1.804-1.456 1.847v0.827l3.195 0.87h0.327c0.151-0.327 0.5-1.327 0.521-2.653 0.695 1.696 1.871 2.674 3.044 2.674" fill="#58585a"/></g><g transform="translate(163.91 574.23)"><path d="m0 0c-0.913 0-1.652 0.74-1.652 1.652 0 0.913 0.739 1.653 1.673 1.653 0.935 0 1.653-0.74 1.653-1.653 0-0.912-0.739-1.652-1.674-1.652m-2.609-12.413v0.869c1.173 0.066 1.436 0.283 1.436 1.522v5.24c0 1.586-0.283 1.803-1.458 1.847v0.827l3.696 0.804h0.412v-8.718c0-1.239 0.175-1.479 1.414-1.522v-0.869z" fill="#58585a"/></g><g transform="translate(179 564.21)"><path d="m0 0c0-1.239 0.239-1.457 1.348-1.522v-0.869h-5.414v0.869c1.24 0.044 1.413 0.304 1.413 1.435v5.131c0 1.304-0.543 1.782-1.5 1.782-1.13 0-1.869-0.456-2.565-1.066v-5.847c0-1.131 0.175-1.391 1.413-1.435v-0.869h-5.5v0.869c1.173 0.065 1.435 0.283 1.435 1.522v5.24c0 1.586-0.283 1.803-1.457 1.847v0.827l3.196 0.869h0.326c0.131-0.282 0.456-1.109 0.499-1.935 0.957 1.044 2.066 1.913 3.762 1.913 1.76 0 3.044-1.043 3.044-3.13z" fill="#58585a"/></g><g transform="translate(184.3 574.23)"><path d="m0 0c-0.913 0-1.652 0.74-1.652 1.652 0 0.913 0.739 1.653 1.673 1.653 0.935 0 1.653-0.74 1.653-1.653 0-0.912-0.739-1.652-1.674-1.652m-2.608-12.413v0.869c1.173 0.066 1.435 0.283 1.435 1.522v5.24c0 1.586-0.283 1.803-1.458 1.847v0.827l3.696 0.804h0.412v-8.718c0-1.239 0.175-1.479 1.414-1.522v-0.869z" fill="#58585a"/></g><g transform="translate(194.69 571.25)"><path d="m0 0h-2.283v-6.174c0-1.63 0.217-2.152 1.304-2.152 0.391 0 0.762 0.087 1.24 0.239l0.26-0.956c-0.783-0.457-1.61-0.696-2.587-0.696-1.827 0-2.869 0.761-2.869 3.043v6.696h-1.304v0.936l1.456 0.542c0.152 1 0.478 2.11 0.999 2.936l1.696 0.26c-0.108-0.782-0.195-2.109-0.195-3.217h2.609z" fill="#58585a"/></g><g transform="translate(197.27 559.08)"><path d="m0 0c1.804 0.37 3.172 0.847 3.892 2.848l-1.044-0.109c-0.284 1.13-0.587 2.152-1.218 3.892l-1.695 4.652c-0.392 1.087-0.675 1.348-1.501 1.457v0.891h5.413v-0.891c-1.021-0.044-1.347-0.218-1.347-0.632 0-0.129 0.064-0.326 0.152-0.542l1.521-4.523c0.371-1.064 0.523-1.956 0.588-2.324h0.088c0.043 0.259 0.237 1.086 0.542 2.042l1.5 4.805c0.066 0.196 0.109 0.347 0.131 0.478 0.044 0.5-0.283 0.652-1.369 0.696v0.891h4.347v-0.891c-0.869-0.109-1.153-0.305-1.544-1.414l-3.108-8.717c-0.935-2.587-2.132-4.022-4.501-4.436z" fill="#58585a"/></g><g transform="translate(213.7 569.16)"><path d="m0 0c0 5.282 2.739 7.956 6.76 7.956 2.239 0 3.565-0.435 4.499-1.043v-2.718h-1.978c-0.37 1.653-0.933 2.457-2.587 2.457-2.239 0-3.587-1.566-3.587-6.543 0-5.24 1.457-6.436 3.718-6.436 1.716 0 2.369 0.74 2.674 2.478h1.869v-2.609c-0.825-0.608-2.435-1.151-4.608-1.151-4.5 0-6.76 2.826-6.76 7.609" fill="#58585a"/></g><g transform="translate(232.18 571.77)"><path d="m0 0c-1.741 0-2.348-1.348-2.348-4.435 0-3.153 0.586-4.587 2.435-4.587 1.542 0 2.325 1.478 2.325 4.565 0 3.239-0.826 4.457-2.412 4.457m0-10.217c-3.197 0-5.239 2.087-5.239 5.695 0 3.523 2.129 5.761 5.303 5.761 3.197 0 5.24-2.131 5.24-5.696 0-3.826-2.347-5.76-5.304-5.76" fill="#58585a"/></g><g transform="translate(243.24 564.25)"><path d="m0 0c0-1.261 0.217-1.522 1.477-1.565v-0.869h-5.608v0.869c1.219 0.065 1.479 0.283 1.479 1.522v10.239c0 1.587-0.348 1.805-1.566 1.849v0.825l3.566 0.609h0.326c0.131-0.326 0.326-1.044 0.326-2.153z" fill="#58585a"/></g><g transform="translate(250.17 564.25)"><path d="m0 0c0-1.261 0.217-1.522 1.477-1.565v-0.869h-5.608v0.869c1.219 0.065 1.479 0.283 1.479 1.522v10.239c0 1.587-0.348 1.805-1.566 1.849v0.825l3.566 0.609h0.326c0.131-0.326 0.326-1.044 0.326-2.153z" fill="#58585a"/></g><g transform="translate(256.08 568.25)"><path d="m0 0h4.044c0 2.631-0.543 3.544-1.913 3.544-1.283 0-1.979-0.827-2.131-3.544m6.065-4.24 0.478-0.825c-1.109-0.999-2.477-1.63-4.217-1.63-3.26 0-5.175 2.109-5.175 5.76 0 3.609 2.067 5.696 4.98 5.696 3.107 0 4.608-1.956 4.608-5.282v-0.762h-6.76c0.064-2.783 1.021-3.782 3.195-3.782 0.914 0 2.022 0.326 2.891 0.825" fill="#58585a"/></g><g transform="translate(270.91 569.38)"><path d="m0 0c0 1.739-0.544 2.413-1.717 2.413-1.109 0-1.697-0.674-1.697-2.348 0-1.63 0.609-2.348 1.718-2.348 1.13 0 1.696 0.696 1.696 2.283m-6.414-9.392c0 0.762 0.565 1.261 1.11 1.522l1.607 0.044c-0.152-0.283-0.261-0.652-0.261-1.087 0-1.13 0.632-1.675 2.457-1.675 2.067 0 2.783 0.719 2.783 1.849 0 1.173-0.609 1.456-3.086 1.544-0.849 0.021-1.827 0.086-2.263 0.152-1.063 0.13-1.52 0.912-1.52 1.803 0 0.958 0.891 1.718 2.217 2.088-1.695 0.369-2.717 1.587-2.717 3.152 0 2.239 1.718 3.609 4.391 3.609 0.782 0 1.348-0.131 2-0.305 0.544-0.152 0.936-0.261 1.435-0.261 0.695 0 1.391 0.392 2.001 0.871l0.933-1.762c-0.522-0.326-1.042-0.522-1.652-0.522-0.478 0-0.935 0.109-1.478 0.348 0.63-0.457 1.13-1.152 1.13-2.109 0-2.544-2.478-3.304-4.673-3.304h-0.174c-0.609-0.196-1.022-0.544-1.022-0.935 0-0.304 0.174-0.5 0.696-0.522l2.043-0.065c2.674-0.066 4.131-0.782 4.131-3.109 0-2.478-2.24-3.717-5.195-3.717-3.044 0-4.893 0.978-4.893 2.391" fill="#58585a"/></g><g transform="translate(279.01 568.25)"><path d="m0 0h4.044c0 2.631-0.544 3.544-1.913 3.544-1.283 0-1.979-0.827-2.131-3.544m6.065-4.24 0.478-0.825c-1.109-0.999-2.477-1.63-4.216-1.63-3.261 0-5.176 2.109-5.176 5.76 0 3.609 2.067 5.696 4.98 5.696 3.109 0 4.609-1.956 4.609-5.282v-0.762h-6.762c0.065-2.783 1.022-3.782 3.196-3.782 0.913 0 2.024 0.326 2.891 0.825" fill="#58585a"/></g><g transform="translate(298.53 563.12)"><path d="m0 0c2.958 0 4.305 1.109 4.305 5.979 0 4.999-1.393 6.456-4.24 6.456h-1.477v-12.435zm-5.867-0.414c1.303 0.023 1.607 0.349 1.607 1.587v10.045c0 1.239-0.304 1.587-1.607 1.609v0.913h5.954c4.435 0 7.24-2.217 7.24-7.565 0-4.609-2.173-7.479-7.283-7.479h-5.911z" fill="#58585a"/></g><g transform="translate(318.09 564.95)"><path d="m0 0c0-1.587 0.261-1.783 1.455-1.848v-0.783l-3.086-0.782h-0.324c-0.197 0.413-0.479 1.021-0.546 1.848-0.912-1.066-1.978-1.826-3.652-1.826-1.804 0-3.043 0.913-3.043 2.977v4.914c0 1.586-0.283 1.804-1.391 1.848v0.826l3.543 0.804h0.5v-7.804c0-1.261 0.478-1.761 1.501-1.761 0.999 0 1.63 0.391 2.391 1.087v5c0 1.586-0.283 1.804-1.392 1.848v0.826l3.544 0.804h0.5z" fill="#58585a"/></g><g transform="translate(327.08 571.14)"><path d="m0 0c-0.998 0-1.891-0.52-2.391-1.087v-5.848c0.61-0.63 1.24-1.021 2.283-1.021 1.501 0 2.35 0.869 2.35 4.087 0 2.978-0.785 3.869-2.242 3.869m-3.586-9.326h-1.739c0.195 0.522 0.282 1.13 0.282 2.543v10.088c0 1.588-0.327 1.804-1.5 1.848v0.826l3.499 0.609h0.328c0.172-0.349 0.325-1.066 0.325-2.153v-4.282c0.632 0.869 1.696 1.673 3.261 1.673 2.544 0 4.198-1.804 4.198-5.565 0-3.913-1.85-5.826-4.676-5.826-1.651 0-2.697 0.783-3.283 1.609-0.131-0.414-0.412-1.087-0.695-1.37" fill="#58585a"/></g><g transform="translate(337.91 564.25)"><path d="m0 0c0-1.261 0.217-1.522 1.48-1.565v-0.869h-5.608v0.869c1.216 0.065 1.476 0.283 1.476 1.522v10.239c0 1.587-0.349 1.805-1.565 1.849v0.825l3.564 0.609h0.327c0.13-0.326 0.326-1.044 0.326-2.153z" fill="#58585a"/></g><g transform="translate(343.38 574.23)"><path d="m0 0c-0.912 0-1.652 0.74-1.652 1.652 0 0.913 0.74 1.653 1.675 1.653 0.936 0 1.653-0.74 1.653-1.653 0-0.912-0.74-1.652-1.676-1.652m-2.608-12.413v0.869c1.174 0.066 1.437 0.283 1.437 1.522v5.24c0 1.586-0.284 1.803-1.459 1.847v0.827l3.697 0.804h0.413v-8.718c0-1.239 0.175-1.479 1.413-1.522v-0.869z" fill="#58585a"/></g><g transform="translate(358.47 564.21)"><path d="m0 0c0-1.239 0.239-1.457 1.348-1.522v-0.869h-5.414v0.869c1.24 0.044 1.412 0.304 1.412 1.435v5.131c0 1.304-0.543 1.782-1.498 1.782-1.131 0-1.871-0.456-2.565-1.066v-5.847c0-1.131 0.174-1.391 1.412-1.435v-0.869h-5.499v0.869c1.174 0.065 1.435 0.283 1.435 1.522v5.24c0 1.586-0.283 1.803-1.457 1.847v0.827l3.195 0.869h0.327c0.13-0.282 0.455-1.109 0.5-1.935 0.955 1.044 2.064 1.913 3.76 1.913 1.761 0 3.044-1.043 3.044-3.13z" fill="#58585a"/></g><g transform="translate(145.11 532.47)"><path d="m0 0h-2.708v0.958h6.566v-0.958h-2.709v-8.017h-1.149z" fill="#006ab2"/></g><g transform="translate(150.47 534.19)"><path d="m0 0h1.123v-2.655l-0.042-1.368c0.629 0.602 1.3 1.095 2.216 1.095 1.397 0 2.025-0.903 2.025-2.599v-4.214h-1.121v4.063c0 1.245-0.383 1.778-1.259 1.778-0.684 0-1.15-0.355-1.819-1.026v-4.815h-1.123z" fill="#006ab2"/></g><g transform="translate(162.08 528.27)"><path d="m0 0c0 1.354-0.601 2.107-1.641 2.107-0.931 0-1.78-0.766-1.915-2.107zm-1.669 2.996c1.697 0 2.654-1.217 2.654-3.119 0-0.233-0.013-0.452-0.041-0.616h-4.487c0.082-1.437 0.944-2.339 2.217-2.339 0.629 0 1.162 0.204 1.654 0.52l0.397-0.739c-0.575-0.369-1.285-0.684-2.189-0.684-1.779 0-3.187 1.3-3.187 3.475s1.463 3.502 2.982 3.502" fill="#006ab2"/></g><g transform="translate(167.54 533.42)"><path d="m0 0h1.136v-5.294c0-2.162 0.917-2.846 2.093-2.846 1.19 0 2.122 0.684 2.122 2.846v5.294h1.094v-5.268c0-2.885-1.383-3.871-3.216-3.871s-3.229 0.986-3.229 3.871z" fill="#006ab2"/></g><g transform="translate(176.3 531.1)"><path d="m0 0h0.93l0.096-0.958h0.041c0.63 0.629 1.314 1.122 2.23 1.122 1.396 0 2.025-0.903 2.025-2.599v-4.214h-1.122v4.063c0 1.244-0.382 1.778-1.259 1.778-0.684 0-1.149-0.355-1.819-1.026v-4.815h-1.122z" fill="#006ab2"/></g><path d="m183.78 531.1h1.123v-6.649h-1.123zm-0.204 2.094c0 0.437 0.341 0.725 0.779 0.725 0.437 0 0.779-0.288 0.779-0.725 0-0.425-0.342-0.726-0.779-0.726-0.438 0-0.779 0.301-0.779 0.726" fill="#006ab2"/><g transform="translate(186.19 531.1)"><path d="m0 0h1.163l1.259-3.776c0.191-0.657 0.409-1.328 0.616-1.957h0.054c0.191 0.629 0.411 1.3 0.602 1.957l1.259 3.776h1.108l-2.354-6.649h-1.312z" fill="#006ab2"/></g><g transform="translate(197.64 528.27)"><path d="m0 0c0 1.354-0.601 2.107-1.64 2.107-0.932 0-1.78-0.766-1.917-2.107zm-1.669 2.996c1.697 0 2.655-1.217 2.655-3.119 0-0.233-0.014-0.452-0.042-0.616h-4.486c0.081-1.437 0.944-2.339 2.215-2.339 0.63 0 1.163 0.204 1.655 0.52l0.397-0.739c-0.575-0.369-1.285-0.684-2.189-0.684-1.778 0-3.187 1.3-3.187 3.475s1.464 3.502 2.982 3.502" fill="#006ab2"/></g><g transform="translate(200.27 531.1)"><path d="m0 0h0.93l0.096-1.205h0.041c0.451 0.836 1.136 1.369 1.888 1.369 0.287 0 0.493-0.042 0.711-0.137l-0.218-0.985c-0.219 0.068-0.37 0.11-0.643 0.11-0.561 0-1.232-0.411-1.682-1.533v-4.268h-1.123z" fill="#006ab2"/></g><g transform="translate(204.7 525.95)"><path d="m0 0c0.575-0.465 1.164-0.793 1.958-0.793 0.875 0 1.313 0.465 1.313 1.04 0 0.683-0.795 0.985-1.52 1.258-0.942 0.342-1.983 0.794-1.983 1.916 0 1.066 0.848 1.888 2.285 1.888 0.835 0 1.56-0.343 2.066-0.752l-0.532-0.712c-0.453 0.341-0.932 0.588-1.52 0.588-0.834 0-1.219-0.451-1.219-0.958 0-0.629 0.725-0.862 1.478-1.149 0.959-0.356 2.025-0.753 2.025-2.012 0-1.08-0.861-1.983-2.435-1.983-0.944 0-1.847 0.397-2.476 0.916z" fill="#006ab2"/></g><path d="m210.62 531.1h1.123v-6.649h-1.123zm-0.205 2.094c0 0.437 0.343 0.725 0.78 0.725 0.438 0 0.779-0.288 0.779-0.725 0-0.425-0.341-0.726-0.779-0.726-0.437 0-0.78 0.301-0.78 0.726" fill="#006ab2"/><g transform="translate(214.17 530.18)"><path d="m0 0h-0.986v0.848l1.04 0.069 0.136 1.861h0.944v-1.861h1.793v-0.917h-1.793v-3.693c0-0.821 0.26-1.286 1.027-1.286 0.232 0 0.532 0.095 0.751 0.177l0.22-0.848c-0.37-0.123-0.821-0.246-1.231-0.246-1.422 0-1.901 0.903-1.901 2.216z" fill="#006ab2"/></g><g transform="translate(218.66 522.52)"><path d="m0 0c0.752 0 1.231 0.602 1.504 1.423l0.151 0.493-2.669 6.662h1.164l1.354-3.681c0.205-0.574 0.437-1.258 0.644-1.874h0.054c0.191 0.603 0.383 1.287 0.56 1.874l1.191 3.681h1.094l-2.504-7.196c-0.464-1.314-1.148-2.313-2.489-2.313-0.301 0-0.562 0.055-0.779 0.137l0.217 0.89c0.139-0.042 0.342-0.096 0.508-0.096" fill="#006ab2"/></g><g transform="translate(230.35 525.21)"><path d="m0 0c1.149 0 1.914 1.026 1.914 2.545 0 1.532-0.765 2.572-1.914 2.572-1.137 0-1.916-1.04-1.916-2.572 0-1.519 0.779-2.545 1.916-2.545m0 6.048c1.628 0 3.078-1.273 3.078-3.503 0-2.202-1.45-3.475-3.078-3.475-1.63 0-3.078 1.273-3.078 3.475 0 2.23 1.448 3.503 3.078 3.503" fill="#006ab2"/></g><g transform="translate(238.17 533.27)"><path d="m0 0c-0.247 0.11-0.506 0.165-0.752 0.165-0.629 0-0.93-0.438-0.93-1.286v-1.054h1.408v-0.917h-1.408v-5.732h-1.122v5.732h-0.902v0.848l0.902 0.069v1.054c0 1.354 0.616 2.202 1.943 2.202 0.411 0 0.807-0.095 1.109-0.219z" fill="#006ab2"/></g><g transform="translate(244.21 525.38)"><path d="m0 0c2.094 0 3.146 1.326 3.146 3.599 0 2.257-1.052 3.515-3.146 3.515h-1.026v-7.114zm-2.162 8.045h2.243c2.765 0 4.242-1.6 4.242-4.446 0-2.86-1.477-4.529-4.188-4.529h-2.297z" fill="#006ab2"/></g><g transform="translate(250.26 531.1)"><path d="m0 0h1.135v-4.064c0-1.245 0.37-1.777 1.245-1.777 0.683 0 1.162 0.341 1.792 1.121v4.72h1.121v-6.649h-0.93l-0.096 1.04h-0.039c-0.616-0.726-1.273-1.204-2.191-1.204-1.408 0-2.037 0.902-2.037 2.599z" fill="#006ab2"/></g><g transform="translate(260.55 525.23)"><path d="m0 0c1.093 0 1.901 0.998 1.901 2.641 0 1.463-0.493 2.449-1.751 2.449-0.562 0-1.149-0.315-1.778-0.904v-3.488c0.587-0.505 1.189-0.698 1.628-0.698m-2.75 8.962h1.122v-2.655l-0.029-1.203c0.603 0.533 1.341 0.93 2.081 0.93 1.722 0 2.639-1.327 2.639-3.38 0-2.27-1.354-3.597-2.873-3.597-0.615 0-1.313 0.3-1.901 0.82h-0.04l-0.097-0.656h-0.902z" fill="#006ab2"/></g><g transform="translate(265.39 534.19)"><path d="m0 0h1.122v-8.482c0-0.357 0.151-0.494 0.314-0.494 0.069 0 0.122 0 0.246 0.028l0.15-0.848c-0.15-0.069-0.342-0.109-0.643-0.109-0.846 0-1.189 0.533-1.189 1.504z" fill="#006ab2"/></g><path d="m268.88 531.1h1.12v-6.649h-1.12zm-0.206 2.094c0 0.437 0.342 0.725 0.78 0.725 0.437 0 0.78-0.288 0.78-0.725 0-0.425-0.343-0.726-0.78-0.726-0.438 0-0.78 0.301-0.78 0.726" fill="#006ab2"/><g transform="translate(272.25 531.1)"><path d="m0 0h0.93l0.096-0.958h0.04c0.63 0.629 1.314 1.122 2.23 1.122 1.396 0 2.024-0.903 2.024-2.599v-4.214h-1.121v4.063c0 1.244-0.382 1.778-1.259 1.778-0.683 0-1.149-0.355-1.819-1.026v-4.815h-1.121z" fill="#006ab2"/></g><g transform="translate(125.48 578.86)"><path d="m0 0v-46.181c0-25.467-30.484-30.528-30.484-30.528s-30.484 5.061-30.484 30.528v46.181s12.685 1.62 30.484 1.62c17.803 0 30.484-1.62 30.484-1.62" fill="#006ab2"/></g><g transform="translate(74.599 572.41)"><path d="m0 0c-1.155-0.372-1.494 1.136-1.984 1.377 0.709 0.152 1.18-1.331 1.984-1.377m-1.877 0.45c0.272-0.462 0.596-0.981 1.355-0.981 0.758 0 1.317 0.318 1.638 0.814-0.715-0.254-1.363 0.32-1.626 0.664-0.324 0.418-0.689 0.894-1.395 0.894-0.21 0-0.705 0-1.16-0.3 0.647-0.164 0.984-0.764 1.188-1.091" fill="#fff"/></g><g transform="translate(86.328 574.37)"><path d="m0 0c0.807-0.583 2.566-0.632 3.263 0.102 0.515-0.53 1.987-0.602 2.777-0.031 0.586-0.238 1.773-0.847 2.96 0.526-0.656 0.01-1.215 0.359-1.562 0.593-0.542 0.367-1.061 0.712-2.072 0.149-0.872 0.54-1.77 0.583-2.793 0.065-1.074 0.787-2.474 0.325-2.893 0.065-0.828 0.394-2.28 0.433-3.234-0.429-0.626-0.564-1.098-1.46-1.098-2.307 0-1.558 0.963-2.913 2.797-3.036 0.94-0.063 2.433 0.233 3.961 0.364 1.449 0.119 2.933 0.088 3.837-0.282 1.405-0.588 1.449-2.028 0.372-2.371-0.942-0.309-3.441 0.674-4.599-0.118-1.17 1.464-4.625-0.042-6.18 0.239-0.144-0.449-0.503-0.914-1.134-0.827 0.631-0.772 0.338-2.557-1.096-2.642-0.367-0.928-1.241-1.275-1.852-0.855-0.17-0.869-1.493-1.45-2.082-0.876-0.349-0.361-0.597-1.045-0.466-1.41-0.469-0.134-0.599-0.642-1.123-0.756 0.086 0.403 0.065 0.799-0.236 1.002-0.211 0.138-0.522 0.158-0.782-6e-3l-0.757 0.03 0.503-0.289c-0.039-0.059-0.077-0.135-0.106-0.217 0.219 0.102 0.571 0.039 0.729-0.1l-0.049-0.092c-0.69 0.117-1.127-0.187-1.184-0.596l-0.517-0.578 0.627 0.16c0.082-0.11 0.206-0.202 0.338-0.246 0.285-0.093 0.518 0.021 0.555 0.106 0.049 0.117-0.108 0.13-0.108 0.13 0.131 0.069 0.27 0.086 0.321 0.027 0.066-0.089 0.076-0.319-0.176-0.437-0.292-0.14-0.575-0.078-0.74 0.021-0.386-0.63 6e-3 -1.116 0.445-1.219l0.243-0.693 0.129 0.693c0.434 0.08 0.574 0.353 0.647 0.631 0.099-0.053 0.228-0.099 0.361-0.123l0.278-0.598 0.143 0.607c0.035 0.013 0.073 0.028 0.106 0.049 0.402 0.245 0.29 0.663 0.197 0.847 0.436 0.038 0.817 0.146 0.951 0.658 0.502-0.348 1.239-0.131 1.745 0.144l-0.398 0.317s0.879 0.08 1.401 0.358l-0.375 0.292s1.185 0.353 1.408 0.534c-0.022 0.02-0.391 0.221-0.391 0.221s0.844 0.406 1.239 1.434c1.657 0.09 3.012 2.213 4.868 2.405-0.243 0.232-0.568 0.386-0.665 0.412l0.125 0.311c1.196-0.13 1.478-0.701 1.856-1.587 0.379-0.884 1.059-1.533 1.862-1.724 0.804-0.194 1.453-0.082 1.68-0.082 0.945 0 1.504-0.537 1.504-1.481 0-0.351-0.183-0.728-0.283-0.893-0.303-0.091-0.948 0.627-1.499 0.328-0.095-0.049-0.167-0.114-0.225-0.186l-0.668-0.15 0.542-0.172c-0.016-0.148 5e-3 -0.302 0.068-0.443 0.484 0.191 0.746 0.149 0.981 0.115l-0.082-0.255c-0.308 0.017-1.376-0.029-1.272-0.945 0.021-0.169 0.096-0.319 0.208-0.44l-0.164-0.745 0.592 0.505c0.273-0.066 0.601-0.01 0.916 0.213 0.248-0.352 0.647-0.627 1.103-0.568l0.533-0.59-0.096 0.748c0.294 0.181 0.493 0.494 0.187 1.283 0.165-0.065 0.325-0.054 0.456 7e-3l0.414-0.383-0.132 0.64c0.145 0.249 0.159 0.603-0.037 0.928 0.293 0.275 0.495 0.56 0.657 0.815-0.199 0.017-0.494 0.098-0.494 0.098s0.498 0.529 0.621 0.726c-0.34 0.214-0.708 0.405-0.698 0.722h-0.01c0.288 0 0.62 0.186 0.62 0.514 0 0.288-0.238 0.547-0.61 0.547 0 0.384-0.229 0.564-0.522 0.564-0.278 0-0.494-0.204-0.494-0.56h-0.661c0.384 0.639-0.32 2.754-2.74 1.987l-0.221 0.334c1.131 0.684 2.542 0.124 3.569 0.155 1.167 0.032 1.957 0.76 1.957 1.929 0 0.41-0.106 1.413-1.221 2.201 0.583 0.937-0.297 1.517-0.828 1.747-0.066-0.679-0.361-1.066-0.863-1.304 0.022 0.386-0.502 1.101-1.123 1.353-0.054-0.517-0.43-1.157-0.857-1.361 0 0.236-0.38 0.929-1.062 1.221-0.018-0.53-0.406-1.131-0.806-1.372 0 0.417-0.519 1.03-1.129 1.276-0.217-0.623-0.809-1.403-1.789-1.403-1.15 0-2.054 0.905-2.054 2.056 0 0.465 0.152 0.902 0.435 1.262-0.046 0.042-0.181 0.197-0.221 0.241l0.446 0.181c0.711-0.856 1.866-1.005 2.996-0.41" fill="#fff"/></g><g transform="translate(87.038 563.8)"><path d="m0 0c-0.319 0.27-0.889 0.995-1.126 1.778-0.216 9e-3 -0.642-0.084-0.876-0.205-0.249-0.229-0.666-1.097-0.666-1.097s-0.687-0.091-0.924-1.213l0.295 0.106c-0.214-0.834 0.05-1.519 0.293-1.955-0.37-0.102-0.79-0.341-1.039-0.567-0.187 0.049-0.2 0.486-0.485 0.74-0.179 0.158-0.462 0.289-0.748 0.011l-0.672 0.023 0.485-0.276c-0.029-0.046-0.057-0.099-0.082-0.157 0.187-0.076 0.517-0.248 0.579-0.309l-0.1-0.21c-0.754 0.404-1.433 0.218-1.488-0.292-3e-3 -0.038-8e-3 -0.082-9e-3 -0.126l-0.531-0.551 0.612 0.176c0.075-0.117 0.209-0.206 0.443-0.22-0.614-0.547-0.142-1.232 0.333-1.321l0.338-0.69 0.01 0.69c0.501 0.08 0.618 0.502 0.739 0.709 0.098-0.085 0.232-0.138 0.373-0.161l0.236-0.612 0.174 0.647c0.047 0.022 0.095 0.046 0.134 0.074 0.412 0.287 0.222 0.73 0.222 0.73s0.647-0.085 0.926 0.34c0.439-0.094 0.856-0.078 1.341 0.058-7e-3 0.023-0.348 0.421-0.348 0.421s0.672-0.038 0.964 0.221c-0.111 0.311-0.137 0.501-0.142 0.754h0.106c0.289 0 0.582 0.145 0.597 0.528 8e-3 0.259-0.227 0.501-0.493 0.501h-0.22c-0.051 0.517 0.248 1.157 0.749 1.455" fill="#fff"/></g><g transform="translate(73.438 566.09)"><path d="m0 0c-0.211 0.603-0.221 1.499 6e-3 2.197h-0.795c0.03 0.832-1.36 0.923-1.39 1.266 0.271 0.455 0.622 0.268 0.981 0.613 0.257 0.24 0.257 0.574 0.049 0.813l0.237 0.55-1.12-0.774-0.148 0.082c0.111 0.211 0.692 0.618 0.47 1.044-0.07 0.124-0.17 0.225-0.305 0.287l-0.327 0.713-0.126-0.686c-0.135-0.045-0.27-0.147-0.385-0.314 0.238-0.119 0.314-0.601 0.233-0.885-0.047-0.172-0.261-0.344-0.286-0.466 0.029-0.021 0.145-0.049 0.145-0.049-9e-3 -0.154-0.106-0.271-0.258-0.219-0.152 0.048-0.173 0.311-0.052 0.521 0.124 0.209 0.276 0.55 0.033 0.857-0.163 0.203-0.467 0.254-0.7 0.083l-0.52 0.322 0.254-0.754c-0.159-0.62 0.095-1.011 0.095-1.011-0.084-0.035-0.193-0.104-0.293-0.202l-0.771 0.301 0.548-0.738c-5e-3 -0.068 0-0.144 0.024-0.227 0.105-0.39 0.562-0.507 0.692-0.527-0.16-0.377 0.075-0.954 0.507-0.951 4e-3 -0.382 0.116-0.94 0.578-1.396l0.116 0.593c0.115-0.108 0.581-0.888 0.692-0.977 8e-3 8e-3 0.145 0.537 0.145 0.537s0.499-0.901 1.671-0.603" fill="#fff"/></g><g transform="translate(76.548 575.41)"><path d="m0 0 0.091-0.117c0.021 0.013 0.044 0.029 0.07 0.049 0.145 0.097 0.368 0.232 0.731 0.232 0.365 5e-3 0.707-0.24 0.76-0.252l-0.212-0.281c-0.045 0.013-0.096 0.025-0.145 0.041-0.017-0.085-0.046-0.164-0.111-0.232-0.083-0.085-0.199-0.131-0.313-0.131-0.101 0-0.2 0.04-0.283 0.112-0.063 0.065-0.103 0.147-0.116 0.232-0.031-0.02-0.058-0.036-0.083-0.055-0.046-0.034-0.091-0.059-0.135-0.084-0.038-0.022-0.079-0.031-0.118-0.031-0.087 0-0.172 0.049-0.223 0.128-0.061 0.104-0.065 0.275 0.087 0.389m-1.636-0.869c-0.084 0.198 0.069 0.338 0.097 0.359 0.111 0.084 0.27 0.068 0.37-0.036 0.104-0.113 0.104-0.277 0-0.405-0.17-0.199-0.651-0.311-0.921-0.29 0.077-0.803 0.778-0.902 1.034-0.892 0.547 0.032 1.005 0.239 1.346 0.458 0.161 0.105 0.333 0.217 0.518 0.295 0.263 0.118 0.643 0.041 0.566-0.344l-0.148-0.713c-0.122-0.566-0.334-0.509-0.751-0.599-0.67-0.136-2.289-0.274-1.94-1.504 0.172 0.057 0.63 0.229 0.872 0.423l0.592-0.268c0.493 0.866 1.553 0.3 1.993 1.467l0.302-0.061c-0.103-1.951-3.577-1.79-4.704-3.545-0.668-1.038-0.554-3.052 0.57-4.199-0.061-6e-3 -0.125-0.018-0.189-0.032-0.243-0.076-0.544-0.293-0.544-0.644 0-0.355 0.282-0.641 0.635-0.641 0.218 0 0.42 0.111 0.539 0.292 0.01 0.307 0.284 0.667 0.731 0.715-0.213 0.687-1.655 1.657-1.02 3.425l0.247-0.1c-0.343-1.615 1.399-2.704 1.246-3.71-0.032-0.176-0.124-0.245-0.264-0.245-0.105 0-0.127 0.095-0.03 0.166l-0.04 0.161c-0.177-0.035-0.282-0.158-0.331-0.229-0.081-0.129-0.11-0.279-0.079-0.403 0.036-0.122 0.125-0.227 0.251-0.293 0.191-0.099 0.438-0.107 0.687-0.02 0.438 0.156 0.846 0.601 0.781 1.148 0 0-0.06 0.41 0.028 0.607-0.935 0.773-1.765 2.335-1.067 4.007l0.259-0.092c-0.395-1.132 0.179-3.101 1.593-3.964 0.101-0.062 0.148-0.266 0.034-0.359-0.085-0.052-0.187-0.08-0.163 0.064 0 0-0.173 0.081-0.248 0.122-0.039-0.178 0.023-0.401 0.128-0.492 0.093-0.093 0.231-0.144 0.391-0.144 0.427 0 0.803 0.39 0.907 0.933 0.241 1.216-2.125 2.227-1.253 4.397l0.319-0.068c-0.55-2.329 1.476-2.353 1.469-4.198 0.555 0.034 0.948 0.613 0.762 1.312-0.24 0.931-1.58 1.246-1.08 2.694l0.309-0.052c-0.176-0.427-0.132-0.954 0.288-1.308 0.335-0.287 0.745-0.284 1.087-0.08 0.376 0.23 0.44 0.7 0.274 1.113-0.84 0.035-1.005 0.773-1.057 1.543-0.028 0.486 0.041 1.013-0.289 1.414 0.77 0.288 0.606 1.069 0.394 1.315 0.462 0.301 0.144 0.927-0.067 1.08 0.234 0.175 0.526 0.408 0.538 1.138-0.245-7e-3 -0.468-0.052-0.712 0.05 0.188 0.213 0.161 0.469 0.129 0.617-0.031 0.134-0.148 0.442-0.601 0.456-0.451 0.012-0.638-0.25-0.668-0.546 0 0-0.547 0.093-0.918 0.177-0.615 0.151-1.529 0.358-1.832 0.049l-0.566-0.592s-0.82 0.052-1.535-0.285c-0.054-0.326 0.026-0.856 0.731-0.644" fill="#fff"/></g><g transform="translate(109.41 556.51)"><path d="m0 0c-0.102-0.53 0.421-0.902 0.872-0.902h5e-3c0.498 0 1.431 0.219 2.063 1.722 0.33 0.775 0.349 1.677-0.069 2.212-0.352 0.449-1.105 0.694-1.463 0.288 0.709-0.134 0.812-1.243 0.476-2.082-0.338-0.845-1.045-1.467-1.884-1.238" fill="#fff"/></g><g transform="translate(110.52 559.62)"><path d="m0 0c-3.263 1.917-6.781 6.615-5.813 13.295-0.348-0.1-0.868-0.115-1.187-0.107-1.043-5.672-0.345-11.849 5.757-15.865 1.273-0.356 2.253 1.793 1.243 2.677" fill="#fff"/></g><g transform="translate(117.6 576.07)"><path d="m0 0c-0.1 8e-3 -0.207 0.017-0.319 0.017-0.864 0-1.886-0.32-2.966-0.653-1.27-0.397-2.712-0.847-4.172-0.847-1.304 0-2.437 0.361-3.461 1.106-0.09 0.063-0.184 0.128-0.281 0.194-0.85 0.589-1.413 0.976-2.404 0.976-1.034 0-1.876-0.807-1.876-1.795 0-0.962 0.792-1.569 1.749-1.569 0.739 0 1.186 0.4 1.223 0.932 0.026 0.357-0.067 0.713-0.664 0.887l0.141 0.514c0.945-0.153 1.562-1.149 0.972-2.136 0.748-0.711 2.558-1.305 3.949-1.305 1.657 0 3.156 0.59 4.484 1.106 1.085 0.423 2.019 0.789 2.88 0.789 0.132 0 0.26-9e-3 0.385-0.027l6e-3 -3e-3 -0.204-0.54 2.046-0.725 0.226 0.609c0.071 0.201 0.114 0.424 0.114 0.64 0 0.964-0.753 1.719-1.828 1.83" fill="#fff"/></g><g transform="translate(112.64 553.3)"><path d="m0 0h-1e-3l0.091 0.454-3.755 1.374-0.208-0.415-2e-3 4e-3c-0.045 0.011-0.081 0.017-0.123 0.017-0.221 0-0.406-0.135-0.484-0.331-0.087-0.246 0.025-0.517 0.26-0.63l-0.129-0.51 3.759-1.374 0.248 0.469c0.038-0.011 0.071-0.014 0.108-0.014 0.213 0 0.408 0.131 0.482 0.331 0.087 0.24-0.019 0.511-0.246 0.625" fill="#fff"/></g><g transform="translate(116.69 573.23)"><path d="m0 0-0.203-0.535-0.171 0.062-0.296-0.672 2.87-1.032 0.199 0.704-0.169 0.064 0.169 0.552z" fill="#fff"/></g><g transform="translate(112.9 559.94)"><path d="m0 0-0.329 0.557 4.224 10.767-0.695 0.259-0.248-0.581-1.183 2.016c-0.14-0.052-0.281-0.107-0.427-0.17-0.02-3e-3 -0.043-0.01-0.061-0.018l1.42-2.418-0.49-1.153-1.884 3.205c-0.165-0.055-0.327-0.118-0.495-0.173l2.125-3.62-0.491-1.15-2.629 4.474c-0.171-0.042-0.348-0.084-0.525-0.121l2.907-4.943c-0.021-0.043-0.484-1.131-0.495-1.161l-3.497 5.95c-0.189-0.014-0.37-0.021-0.564-0.026l3.819-6.495c-0.108-0.249-0.494-1.161-0.494-1.161l-4.563 7.758c-0.227 0.039-0.456 0.082-0.679 0.14l4.991-8.483s-0.397-0.928-0.491-1.155l-5.97 10.16c-0.356 0.168-0.664 0.347-0.921 0.548l6.64-11.291s-0.459-1.087-0.546-1.287c1.196 0.185 2.211-1.384 1.459-3.198-0.586-1.415-1.462-1.937-2.103-2.01l1.903-0.689 5.65 16.249-0.982 0.363z" fill="#fff"/></g><path d="m96.199 518.79h-0.96v0.964h0.96zm-1.477 0h-0.958v0.964h0.958zm1.99 0v0.965h0.729c-0.088 0.187-0.196 0.355-0.315 0.517h-0.414v0.417c-0.157 0.127-0.331 0.239-0.513 0.328v-0.745h-0.96v0.738h-0.517v-0.738h-0.958v0.712c-0.183-0.103-0.354-0.223-0.513-0.361v-0.351h-0.339c-0.121-0.162-0.226-0.33-0.319-0.517h0.658v-0.965h-0.909c-5e-3 -0.059-0.01-0.122-0.01-0.182v-0.334h0.919v-0.922h0.513v0.922h0.958v-0.922h0.517v0.922h0.96v-0.922h0.513v0.922h0.991v0.334c0 0.06-6e-3 0.123-9e-3 0.182z" fill="#fff"/><g transform="translate(77.521 532.55)"><path d="m0 0c0.045 9e-3 0.091 0.021 0.136 0.032l0.546 0.114 0.612-1.531c0.156 0.013 0.316 0.027 0.488 0.037v1.634h2.714l-6e-3 -1.634c0.171-0.01 0.333-0.024 0.497-0.039l0.575 1.514 0.524-0.084 0.175-0.022c-0.175 1.576-1.51 2.807-3.13 2.807-1.631 0-2.973-1.238-3.131-2.828" fill="#fff"/></g><g transform="translate(105.62 525.86)"><path d="m0 0c0.034 0.343 0.246 0.636 0.496 0.816l0.047 1.826h-1.415v-2.232h-2.781v2.232h-2.78v-2.232h-2.782v2.232h-2.784v-2.232h-2.774v2.232h-2.782v-2.232h-2.782v2.232h-1.414l0.044-1.826c0.251-0.18 0.468-0.473 0.497-0.814 0.028-0.346-0.127-0.669-0.398-0.861l0.019-0.341h21.967l0.018 0.341c-0.265 0.192-0.425 0.515-0.396 0.859" fill="#fff"/></g><g transform="translate(88.034 520.87)"><path d="m0 0v-2.019h-1.567v3.292c0 0.322 0.45 0.717 0.641 0.872l0.14 0.113h2e-3l0.145-0.113c0.194-0.155 0.639-0.55 0.639-0.872zm5.547 2.458-0.052 0.704h-9.464l0.485-9.983h5.557v4.589c0 2.207 1.466 4.072 3.474 4.69" fill="#fff"/></g><g transform="translate(90.645 518.62)"><path d="m0 0v-0.624h1.101v0.609c0 0.184 0.018 0.363 0.05 0.541l-1.071 0.29c-0.054-0.271-0.08-0.542-0.08-0.816" fill="#fff"/></g><path d="m90.646 514.03h1.101v1.35h-1.101z" fill="#fff"/><path d="m90.646 516.01h1.101v1.342h-1.101z" fill="#fff"/><g transform="translate(98.243 519.14)"><path d="m0 0c0.029-0.178 0.045-0.357 0.045-0.54v-0.61h1.105v0.624c0 0.275-0.028 0.543-0.081 0.816z" fill="#fff"/></g><g transform="translate(91.72 521.47)"><path d="m0 0c-0.369-0.415-0.656-0.906-0.832-1.429l1.078-0.29c0.122 0.336 0.307 0.647 0.532 0.927z" fill="#fff"/></g><path d="m98.288 514.03h1.105v1.35h-1.105z" fill="#fff"/><g transform="translate(98.326 521.47)"><path d="m0 0-0.79-0.792c0.234-0.28 0.417-0.591 0.54-0.927l1.076 0.29c-0.179 0.523-0.461 1.014-0.826 1.429" fill="#fff"/></g><path d="m98.288 516.01h1.105v1.342h-1.105z" fill="#fff"/><g transform="translate(95.888 524.01)"><path d="m0 0h-1.736l0.178-2.578h1.384z" fill="#fff"/></g><g transform="translate(93.695 521.59)"><path d="m0 0-0.081 1.168c-0.53-0.183-1.028-0.466-1.448-0.833l0.784-0.794c0.223 0.184 0.476 0.339 0.745 0.459" fill="#fff"/></g><g transform="translate(97.876 521.92)"><path d="m0 0c-0.42 0.366-0.924 0.651-1.452 0.832l-0.08-1.167c0.272-0.12 0.523-0.276 0.746-0.459z" fill="#fff"/></g><g transform="translate(78.462 528.35)"><path d="m0 0 0.024 0.479 0.038 9e-3s0.1 0.012 0.14 0.02c0.642 0.102 1.369 0.154 2.091 0.154 0.474 0 0.934-0.024 1.369-0.067l-0.031-0.517c-0.426 0.045-0.871 0.066-1.338 0.066-0.26 0-0.535-0.011-0.831-0.024l-0.037-1.804-0.514-0.042 0.039 1.804c-0.263-0.024-0.473-0.049-0.673-0.082-0.066-7e-3 -0.115-0.015-0.181-0.023l-0.097-0.02zm-0.424-2.09c-0.651-0.123-0.655-0.861-0.081-0.82v4e-3c1.308 0.209 4.089 0.238 5.379 0 0.605-0.068 0.614 0.706-0.071 0.816l-0.059 2.513 1.435 2.968c-0.302 0.077-0.537 0.108-0.879 0.157-0.078 0.011-0.159 0.025-0.251 0.038l-0.573-1.489-0.175 0.021c-0.379 0.037-0.778 0.07-1.187 0.092l-0.222 5e-3 2e-3 1.607h-1.393v-1.61h-0.231c-0.426-0.024-0.805-0.057-1.173-0.093l-0.178-0.018-0.584 1.477c-0.353-0.079-0.77-0.181-1.054-0.275l1.346-2.884z" fill="#fff"/></g><g transform="translate(82.167 525.03)"><path d="m0 0 0.049-1.787c0.328-8e-3 0.612-0.026 0.852-0.046l0.024-0.517h-9e-3c-0.55 0.046-1.33 0.066-2.392 0.066-0.367 0-0.692 0-0.992-4e-3l-0.106-2.914c0.342-9e-3 0.712-0.014 1.098-0.014 1.095 0 1.969 0.031 2.537 0.086l0.024-0.515c-0.256-0.023-0.565-0.044-0.93-0.058l0.084-2.904c0.455 0.061 0.769 0.134 0.98 0.196l0.026-0.532c-0.674-0.174-1.624-0.275-2.711-0.275-0.45 0-0.883 0.016-1.292 0.049l-0.086-2.852c-0.192 0.017-0.355 0.038-0.512 0.065l0.082 2.843c-0.414 0.049-0.783 0.118-1.08 0.203l0.034 0.531 0.017-6e-3c0.644-0.204 1.675-0.318 2.837-0.318 0.422 0 0.819 0.012 1.192 0.041l-0.085 2.944c-0.341-8e-3 -0.716-0.012-1.117-0.012-1.167 0-2.067 0.034-2.688 0.094l0.031 0.517h5e-3c0.283-0.032 0.627-0.049 1.044-0.066l0.098 2.884c-0.386-0.012-0.715-0.028-0.992-0.052l0.029 0.516c0.587 0.05 1.368 0.069 2.473 0.069 0.369 0 0.708-1e-3 1.005-5e-3l-0.047 1.796c-1.331 0.041-2.926-0.032-3.715-0.182l-0.659-11.652c0.093-0.201 1.161-0.652 3.377-0.652 2.31 0 3.213 0.478 3.277 0.647l-0.565 11.677c-0.298 0.064-0.719 0.106-1.197 0.139" fill="#fff"/></g><g transform="translate(106.95 532.67)"><path d="m0 0 0.579-1.514c0.161 0.014 0.325 0.029 0.494 0.038l-4e-3 1.635h2.71v-1.635c0.172-9e-3 0.335-0.024 0.493-0.036l0.613 1.531 0.546-0.114c0.045-0.01 0.09-0.023 0.135-0.032-0.16 1.59-1.5 2.828-3.129 2.828-1.62 0-2.96-1.231-3.134-2.806l0.174 0.021z" fill="#fff"/></g><g transform="translate(111.48 528.32)"><path d="m0 0c-0.059 7e-3 -0.118 0.017-0.175 0.023-0.195 0.033-0.42 0.058-0.675 0.082l0.041-1.803-0.516 0.041-0.043 1.803c-0.298 0.013-0.567 0.024-0.822 0.024-0.465 0-0.916-0.02-1.344-0.065l-0.031 0.517c0.438 0.043 0.898 0.067 1.375 0.067 0.719 0 1.438-0.053 2.09-0.154 0.043-7e-3 0.134-0.02 0.134-0.02l0.046-9e-3 0.023-0.479v-0.046zm0.172 2.129-0.174 0.017c-0.36 0.037-0.752 0.069-1.168 0.093h-0.233v1.609h-1.39l4e-3 -1.605-0.228-6e-3c-0.408-0.022-0.805-0.054-1.185-0.093l-0.18-0.019-0.572 1.487c-0.089-0.012-0.171-0.026-0.253-0.037-0.337-0.049-0.576-0.08-0.876-0.158l1.432-2.967-0.051-2.513c-0.688-0.111-0.679-0.884-0.076-0.815 1.288 0.236 4.076 0.208 5.378 0v-4e-3c0.578-0.042 0.571 0.695-0.075 0.819l-0.054 2.509 1.348 2.885c-0.288 0.094-0.703 0.195-1.054 0.275z" fill="#fff"/></g><g transform="translate(108.4 525.05)"><path d="m0 0-0.052-1.796c0.299 4e-3 0.639 5e-3 0.999 5e-3 1.109 0 1.901-0.02 2.48-0.069l0.03-0.516c-0.276 0.023-0.602 0.039-0.992 0.052l0.098-2.884c0.411 0.016 0.763 0.034 1.042 0.066h7e-3l0.028-0.518c-0.612-0.059-1.52-0.094-2.693-0.094-0.396 0-0.776 4e-3 -1.11 0.013l-0.088-2.944c0.373-0.029 0.769-0.042 1.188-0.042 1.172 0 2.2 0.114 2.843 0.319l0.014 6e-3 0.032-0.532c-0.295-0.085-0.659-0.153-1.074-0.202l0.08-2.843c-0.154-0.027-0.326-0.049-0.516-0.065l-0.077 2.852c-0.413-0.033-0.852-0.05-1.302-0.05-1.081 0-2.034 0.102-2.707 0.276l0.027 0.531c0.208-0.062 0.527-0.134 0.982-0.195l0.078 2.904c-0.36 0.013-0.668 0.034-0.925 0.058l0.02 0.515c0.572-0.055 1.444-0.086 2.535-0.086 0.394 0 0.757 5e-3 1.099 0.013l-0.098 2.915c-0.302 4e-3 -0.631 4e-3 -1.001 4e-3 -1.059 0-1.835-0.021-2.391-0.066h-8e-3l0.023 0.517c0.245 0.019 0.531 0.038 0.859 0.045l0.049 1.788c-0.486-0.033-0.905-0.075-1.204-0.14l-0.564-11.676c0.064-0.169 0.972-0.648 3.282-0.648 2.211 0 3.284 0.452 3.369 0.653l-0.651 11.651c-0.791 0.151-2.386 0.223-3.711 0.183" fill="#fff"/></g><g transform="translate(101.97 520.86)"><path d="m0 0v1.278c0 0.323 0.444 0.718 0.639 0.872l0.141 0.113h2e-3l0.143-0.113c0.193-0.154 0.638-0.549 0.638-0.872v-3.292h-1.563zm-5.503 2.445c2.001-0.619 3.464-2.488 3.464-4.692v-4.589h5.563l0.481 9.987h-9.459z" fill="#fff"/></g><g transform="translate(78.469 542.38)"><path d="m0 0v-1.942h-1.196v1.942h-1.939v1.196h1.939v1.949h1.196v-1.949h1.923v-1.196zm1.843 4.605c0 0.185 0.155 0.338 0.34 0.338 0.183 0 0.336-0.15 0.336-0.338 0-0.189-0.15-0.338-0.336-0.338-0.189 0-0.34 0.151-0.34 0.338m0.08-11.125h0.518v10.368c0.313 0.111 0.545 0.405 0.545 0.757 0 0.446-0.361 0.808-0.803 0.808-0.447 0-0.806-0.362-0.806-0.808 0-0.352 0.228-0.649 0.546-0.757v-0.189h-5.579v-6.118h5.579z" fill="#fff"/></g><g transform="translate(114.71 544.66)"><path d="m0 0-1.692-1.691 1.692-1.689v-0.843h-0.845l-1.687 1.692-1.693-1.692h-0.839v0.856l1.684 1.681-1.684 1.68v0.869h0.82l1.705-1.709 1.705 1.709h0.836zm-5.316 1.986c-0.194 0-0.342 0.148-0.342 0.338 0 0.188 0.151 0.338 0.342 0.338 0.184 0 0.339-0.154 0.339-0.338 0-0.187-0.152-0.338-0.339-0.338m0.252-0.608v0.189c0.316 0.107 0.554 0.405 0.554 0.757 0 0.446-0.366 0.808-0.806 0.808-0.445 0-0.81-0.362-0.81-0.808 0-0.352 0.237-0.647 0.553-0.757v-10.369h0.509v4.061h5.582v6.119z" fill="#fff"/></g><g transform="translate(89.065 536.08)"><path d="m0 0v16.992h11.538c0.88 0 1.74-0.123 2.023-1.013 0.15-0.449 0.094-0.902-0.15-1.241-0.223-0.307-0.566-0.474-0.977-0.474l-9.922-3e-3v-1.102c0.126 0.03 0.255 0.049 0.392 0.049 0.072 0 0.157-5e-3 0.231-0.019v0.446h0.171s8.754 2e-3 9.431 2e-3c0.556 0 1.032 0.266 1.347 0.738l0.025 0.044c0.014 0.012 0.021 0.03 0.035 0.048v7e-3l0.037 0.06c0.243 0.382 0.302 1.058 0.14 1.565-0.327 1.001-1.181 1.575-2.356 1.575h-12.644v-18.202h1.582c-0.423 0.324-0.754 0.464-0.759 0.47z" fill="#fff"/></g><g transform="translate(91.576 542.75)"><path d="m0 0v-1.416c0.124 0.033 0.255 0.053 0.393 0.053 0.072 0 0.157-0.01 0.231-0.02v1.353c-0.074-0.012-0.159-0.022-0.231-0.022-0.138 0-0.269 0.022-0.393 0.052" fill="#fff"/></g><g transform="translate(86.573 540.22)"><path d="m0 0 0.016 0.167c0.041 0.656-0.164 1.181-0.499 1.253-0.05 9e-3 -0.098 0.017-0.141 0.017-0.102 0-0.315 0-0.354-0.466l-0.043-0.391-0.319 0.218c-0.063 0.041-0.12 0.06-0.176 0.06-0.152 0-0.305-0.189-0.363-0.454-0.095-0.418 0.045-1.016 0.729-1.338l0.145-0.065-7e-3 -0.159c-0.029-0.476 0.155-0.819 0.486-0.902 0.283-0.067 0.4 0.246 0.413 0.394l0.025 0.316 0.292-0.114c0.129-0.049 0.406-0.139 0.741-0.139 0.137 0 0.267 0.012 0.399 0.042v1.332c-0.389-0.046-0.835 0.018-1.188 0.164z" fill="#fff"/></g><g transform="translate(86.573 550.64)"><path d="m0 0 0.016 0.164c0.041 0.66-0.164 1.181-0.499 1.253-0.05 0.014-0.098 0.017-0.141 0.017-0.102 0-0.315 0-0.354-0.466l-0.043-0.39-0.319 0.22c-0.063 0.038-0.12 0.062-0.176 0.062-0.152 0-0.305-0.191-0.363-0.456-0.095-0.421 0.045-1.019 0.729-1.338l0.145-0.068-7e-3 -0.157c-0.029-0.472 0.155-0.82 0.486-0.901 0.283-0.07 0.4 0.245 0.413 0.393l0.025 0.315 0.292-0.115c0.129-0.049 0.406-0.138 0.741-0.138 0.137 0 0.267 0.015 0.399 0.041v1.331c-0.389-0.041-0.835 0.02-1.188 0.165z" fill="#fff"/></g><g transform="translate(101.86 534.32)"><path d="m0 0h-9.662v0.495c-0.075-0.011-0.159-0.02-0.231-0.02-0.138 0-0.266 0.02-0.394 0.051v-1.153h10.249c0.582 0 1.328 0.226 1.555 0.645 0.096 0.181 0.09 0.388-0.016 0.624-0.293-0.436-0.898-0.642-1.501-0.642" fill="#fff"/></g><g transform="translate(91.576 538.35)"><path d="m0 0v-0.513c0.127 0.034 0.255 0.054 0.393 0.054 0.072 0 0.157-7e-3 0.231-0.02v0.447c-0.074-0.011-0.159-0.017-0.231-0.017-0.138 0-0.266 0.013-0.393 0.049" fill="#fff"/></g><g transform="translate(89.716 552.26)"><path d="m0 0v-15.761c0.193-0.104 0.455-0.26 0.743-0.489-0.025 0.104-0.038 0.219-0.038 0.331 0 0.453 0.193 0.856 0.496 1.138v1.227c-0.303 0.283-0.496 0.687-0.496 1.137 0 0.459 0.191 0.86 0.496 1.142v2.116c-0.305 0.278-0.496 0.685-0.496 1.143 0 0.454 0.193 0.854 0.496 1.14v1.224c-0.303 0.286-0.496 0.686-0.496 1.135s0.193 0.856 0.496 1.138v2.117h0.252c-0.433 0.623-1.015 1.03-1.453 1.262" fill="#fff"/></g><g transform="translate(101.5 550.99)"><path d="m0 0c0.194 0 0.351 0.076 0.446 0.204 0.123 0.167 0.14 0.41 0.058 0.662-0.112 0.351-0.378 0.557-1.4 0.557h-9.826c0.427-0.331 0.889-0.8 1.224-1.423z" fill="#fff"/></g><g transform="translate(102.27 534.79)"><path d="m0 0c0.3 0.06 0.796 0.227 0.844 0.712v14.28c-0.246-0.212-0.533-0.36-0.85-0.435z" fill="#fff"/></g><g transform="translate(91.969 546.19)"><path d="m0 0c-0.137 0-0.266 0.02-0.393 0.05v-0.509c0.127 0.033 0.256 0.054 0.393 0.054 0.072 0 0.157-0.01 0.231-0.021v0.446c-0.074-0.012-0.159-0.02-0.231-0.02" fill="#fff"/></g><g transform="translate(93.302 545.01)"><path d="m0 0c0.231 0.276 0.354 0.617 0.354 0.978s-0.123 0.702-0.352 0.977c-3e-3 0-3e-3 4e-3 -7e-3 7e-3 -0.154-0.274-0.39-0.488-0.666-0.623v-0.719c0.278-0.134 0.516-0.35 0.671-0.62" fill="#fff"/></g><g transform="translate(93.302 537.11)"><path d="m0 0c0.231 0.276 0.354 0.617 0.354 0.978s-0.123 0.701-0.354 0.978c-0.155-0.27-0.393-0.489-0.671-0.622v-0.711c0.278-0.134 0.516-0.35 0.671-0.623" fill="#fff"/></g><g transform="translate(92.752 544.24)"><path d="m0 0c0 0.44-0.349 0.794-0.783 0.794-0.439 0-0.796-0.354-0.796-0.794 0-0.442 0.35-0.792 0.796-0.792 0.434 0 0.783 0.357 0.783 0.792" fill="#fff"/></g><g transform="translate(92.752 539.84)"><path d="m0 0c0 0.434-0.349 0.787-0.783 0.787-0.446 0-0.796-0.345-0.796-0.787 0-0.438 0.357-0.788 0.796-0.788 0.434 0 0.783 0.35 0.783 0.788" fill="#fff"/></g><g transform="translate(91.969 548.53)"><path d="m0 0c-0.44 0-0.796-0.357-0.796-0.793s0.356-0.79 0.796-0.79c0.434 0 0.783 0.354 0.783 0.79s-0.349 0.793-0.783 0.793" fill="#fff"/></g><g transform="translate(92.752 536.34)"><path d="m0 0c0 0.439-0.349 0.796-0.783 0.796-0.439 0-0.796-0.357-0.796-0.796 0-0.433 0.357-0.787 0.796-0.787 0.434 0 0.783 0.354 0.783 0.787" fill="#fff"/></g><g transform="translate(100.58 546.76)"><path d="m0 0-2.381-2.316 2.17-2.222 1.381 1.338-1e-3 2.023z" fill="#fff"/></g><g transform="translate(101.75 547.89)"><path d="m0 0-0.811-0.787 0.811-0.822z" fill="#fff"/></g><g transform="translate(92.63 534.75)"><path d="m0 0h4.549l-1.85 1.898-0.724-0.718-0.35 0.355 0.735 0.718-0.315 0.32 0.351 0.345 0.312-0.322 1.948 1.886-2.165 2.219-1.006-0.992-0.346 0.353 1.005 0.995-1.012 1.019 0.351 0.344 1.016-1.019 2.369 2.3-2.192 2.24-0.291-0.273-0.334 0.361 0.287 0.265-0.899 0.902 0.351 0.348 0.902-0.911 2.046 1.903h-4.738v-0.153c0.521-0.249 0.879-0.781 0.879-1.396 0-0.021-3e-3 -0.04-3e-3 -0.059 0.516-0.416 0.81-1.03 0.81-1.689 0-0.658-0.294-1.276-0.81-1.691 0-0.017 3e-3 -0.036 3e-3 -0.06 0-0.609-0.358-1.144-0.879-1.393v-1.616c0.521-0.253 0.879-0.78 0.879-1.393 0-0.02-3e-3 -0.037-3e-3 -0.057 0.516-0.419 0.81-1.028 0.81-1.69 0-0.66-0.294-1.274-0.81-1.693 0-0.016 3e-3 -0.04 3e-3 -0.062 0-0.609-0.358-1.138-0.879-1.391z" fill="#fff"/></g><g transform="translate(98.773 549.29)"><path d="m0 0 1.816-1.833 1.158 1.123-2e-3 0.71z" fill="#fff"/></g><g transform="translate(101.75 542.87)"><path d="m0 0-1.032-0.999 1.036-1.06z" fill="#fff"/></g><g transform="translate(101.75 538.53)"><path d="m0 0v1.579l-1.392 1.42-2.374-2.306 2.184-2.233z" fill="#fff"/></g><g transform="translate(101.75 537.84)"><path d="m0 0-1.239-1.203 1.24-1.265z" fill="#fff"/></g><g transform="translate(95.67 547.03)"><path d="m0 0 2.183-2.233 2.38 2.314-2.147 2.172z" fill="#fff"/></g><g transform="translate(95.467 541.8)"><path d="m0 0 2.175-2.218 2.374 2.3-2.172 2.223z" fill="#fff"/></g><g transform="translate(99.818 536.65)"><path d="m0 0-2.187 2.232-1.943-1.889 2.181-2.24z" fill="#fff"/></g><g transform="translate(100.16 536.29)"><path d="m0 0-1.584-1.541h3.1z" fill="#fff"/></g></g></g></svg>
